<?xml version="1.0" encoding="iso-8859-1"?>
<!-- Generator: Adobe Illustrator 19.0.0, SVG Export Plug-In . SVG Version: 6.00 Build 0)  -->
<svg version="1.1" id="Capa_1" xmlns="http://www.w3.org/2000/svg" xmlns:xlink="http://www.w3.org/1999/xlink" x="0px" y="0px"
	 viewBox="0 0 512.001 512.001" style="enable-background:new 0 0 512.001 512.001;" xml:space="preserve">
<g>
	<g>
		<path d="M416.076,373.333h-64.139c-5.866-0.035-10.603-4.801-10.603-10.667V352c0-5.891,4.776-10.667,10.667-10.667h21.333h21.333
			H416c5.891,0,10.667,4.776,10.667,10.667H448c0-17.673-14.327-32-32-32h-21.333v-21.333h-21.333V320H352
			c-17.673,0-32,14.327-32,32v10.667c0,17.652,14.294,31.971,31.947,32h64.117c5.866,0.035,10.603,4.801,10.603,10.667V416
			c0,5.891-4.776,10.667-10.667,10.667h-64c-5.891,0-10.667-4.776-10.667-10.667H320c0,17.673,14.327,32,32,32h21.333v21.333h21.333
			V448H416c17.673,0,32-14.327,32-32v-10.667C448,387.689,433.719,373.374,416.076,373.333z"/>
	</g>
</g>
<g>
	<g>
		<path d="M469.333,0H42.667C19.104,0,0,19.103,0,42.667V320v21.333v21.333c0,23.564,19.103,42.667,42.667,42.667h138.667V448h-96
			c-5.891,0-10.667,4.776-10.667,10.667v42.667c0,5.891,4.776,10.667,10.667,10.667h192v-21.333H96v-21.333h149.333V448h-42.667
			v-42.667h32V384h-192c-11.782,0-21.333-9.551-21.333-21.333v-21.333h213.333V320H21.333V42.667
			c0-11.782,9.551-21.333,21.333-21.333h426.667c11.782,0,21.333,9.551,21.333,21.333V288H512V42.667
			C512,19.103,492.898,0,469.333,0z"/>
	</g>
</g>
<g>
	<g>
		<rect x="181.331" y="352" width="53.33" height="21.333"/>
	</g>
</g>
<g>
	<g>
		<path d="M384,256c-70.692,0-128,57.308-128,128s57.308,128,128,128c70.661-0.076,127.924-57.339,128-128
			C512,313.308,454.693,256,384,256z M384,490.667c-58.91,0-106.667-47.756-106.667-106.667
			c0-58.911,47.757-106.667,106.667-106.667c58.884,0.065,106.602,47.783,106.667,106.667
			C490.667,442.91,442.911,490.667,384,490.667z"/>
	</g>
</g>
<g>
	<g>
		<path d="M437.332,53.333H384v21.333h22.923l-78.389,62.709l-58.464-19.477c-4.165-1.385-8.754-0.077-11.563,3.296l-99.573,119.467
			L64,155.251V64h10.667V42.667H53.333c-5.891,0-10.667,4.776-10.667,10.667V288c0,5.891,4.776,10.667,10.667,10.667h21.333v-21.333
			H64v-93.386l88.864,79.977c1.958,1.764,4.5,2.741,7.136,2.741l0.725-0.021c2.906-0.2,5.604-1.58,7.467-3.819l102.005-122.4
			l57.099,19.029c3.433,1.144,7.212,0.469,10.037-1.792l83.734-66.987l-4.918,24.564l20.918,4.188l10.512-52.507
			c0.269-0.943,0.425-1.924,0.425-2.926C448.001,58.104,443.223,53.331,437.332,53.333z"/>
	</g>
</g>
<g>
	<g>
		<path d="M157.526,89.173c-3.772-4.522-10.494-5.134-15.019-1.365l-64,53.333l13.653,16.384l55.808-46.507l46.507,55.808
			l16.384-13.653L157.526,89.173z"/>
	</g>
</g>
<g>
	<g>
		<path d="M454.402,194.133l-42.667-32l-12.8,17.067L416,192h-96c-2.308,0-4.554,0.749-6.4,2.133l-35.264,26.453l-25.461-25.461
			l-15.083,15.083l32,32c2,2.001,4.713,3.125,7.541,3.125c2.308,0,4.554-0.749,6.4-2.133l39.819-29.867h92.461l-17.083,12.818
			l12.803,17.064l42.66-32.009l-0.011-0.015c0.803-0.601,1.536-1.304,2.152-2.125C460.07,204.353,459.114,197.667,454.402,194.133z"
			/>
	</g>
</g>
<g>
	<g>
		<rect x="192" y="42.667" width="96" height="21.333"/>
	</g>
</g>
<g>
	<g>
		<rect x="192" y="74.67" width="53.33" height="21.333"/>
	</g>
</g>
<g>
	<g>
		<rect x="266.671" y="74.67" width="21.333" height="21.333"/>
	</g>
</g>
<g>
</g>
<g>
</g>
<g>
</g>
<g>
</g>
<g>
</g>
<g>
</g>
<g>
</g>
<g>
</g>
<g>
</g>
<g>
</g>
<g>
</g>
<g>
</g>
<g>
</g>
<g>
</g>
<g>
</g>
</svg>
